<svg width="21" height="21" viewBox="0 0 21 21" fill="none" xmlns="http://www.w3.org/2000/svg">
<path d="M9.62499 2.67313C8.15104 2.83785 6.75356 3.41541 5.59337 4.33933C4.43319 5.26326 3.55747 6.496 3.06699 7.89567C2.57651 9.29535 2.49121 10.8051 2.82091 12.2511C3.15061 13.6971 3.8819 15.0206 4.93063 16.0694C5.97936 17.1181 7.30289 17.8494 8.74891 18.1791C10.1949 18.5088 11.7046 18.4235 13.1043 17.933C14.504 17.4425 15.7367 16.5668 16.6607 15.4066C17.5846 14.2464 18.1621 12.849 18.3269 11.375H9.62499V2.67313Z" stroke="#A4C639" stroke-width="2" stroke-linecap="round" stroke-linejoin="round"/>
<path d="M17.927 7.875H13.125V3.073C14.2322 3.46581 15.2378 4.10072 16.0686 4.93144C16.8993 5.76217 17.5342 6.76779 17.927 7.875Z" stroke="#A4C639" stroke-width="2" stroke-linecap="round" stroke-linejoin="round"/>
</svg>
