<svg width="30" height="30" viewBox="0 0 30 30" fill="none" xmlns="http://www.w3.org/2000/svg">
<path d="M2.18571 20.0828L1.69286 14.565C1.15714 8.12783 6.19286 1.60712 15 1.60712C23.8071 1.60712 28.8429 8.12783 28.3071 14.565L27.8143 20.0828" stroke="black" stroke-linecap="round" stroke-linejoin="round"/>
<path d="M19.095 18.7307C19.1441 18.17 19.3031 17.6244 19.563 17.1252C19.823 16.6259 20.1787 16.1828 20.6099 15.821C21.0411 15.4593 21.5393 15.186 22.0761 15.0168C22.613 14.8476 23.1779 14.7858 23.7386 14.835L23.9743 14.8564C25.1063 14.9555 26.1526 15.5001 26.8831 16.3705C27.6137 17.2409 27.9686 18.3658 27.87 19.4978L27.4671 24.1243C27.4181 24.685 27.259 25.2305 26.9991 25.7298C26.7392 26.229 26.3835 26.6722 25.9523 27.0339C25.5211 27.3957 25.0228 27.669 24.486 27.8381C23.9492 28.0073 23.3843 28.0691 22.8236 28.02L22.5879 27.9985C22.027 27.9497 21.4812 27.7909 20.9817 27.5311C20.4822 27.2713 20.0388 26.9156 19.6768 26.4844C19.3148 26.0531 19.0414 25.5548 18.8721 25.0179C18.7027 24.4809 18.6409 23.9158 18.69 23.355L19.095 18.7307ZM2.13 19.5C2.08086 18.9393 2.14264 18.3744 2.31183 17.8376C2.48102 17.3007 2.7543 16.8025 3.11605 16.3713C3.47781 15.9401 3.92096 15.5844 4.42021 15.3244C4.91945 15.0645 5.465 14.9055 6.02571 14.8564L6.26143 14.835C6.8223 14.7855 7.38742 14.8471 7.92449 15.0162C8.46156 15.1852 8.96006 15.4584 9.39149 15.8202C9.82293 16.182 10.1788 16.6253 10.4389 17.1246C10.699 17.624 10.8581 18.1698 10.9071 18.7307L11.3121 23.355C11.3613 23.9157 11.2995 24.4806 11.1303 25.0174C10.9611 25.5542 10.6878 26.0525 10.3261 26.4837C9.96433 26.9149 9.52117 27.2706 9.02193 27.5305C8.52269 27.7904 7.97714 27.9495 7.41643 27.9985L7.18071 28.02C6.61984 28.0694 6.05472 28.0078 5.51765 27.8388C4.98058 27.6697 4.48208 27.3965 4.05064 27.0347C3.61921 26.6729 3.26329 26.2297 3.00323 25.7303C2.74317 25.2309 2.58406 24.6852 2.535 24.1243L2.13 19.5Z" stroke="black" stroke-linecap="round" stroke-linejoin="round"/>
</svg>
