<svg width="36" height="36" viewBox="0 0 36 36" fill="none" xmlns="http://www.w3.org/2000/svg">
<path d="M27.4514 5.29315C27.3199 5.29348 27.1907 5.25851 27.0773 5.1919C23.9569 3.52127 21.259 2.81252 18.0246 2.81252C14.8064 2.81252 11.7506 3.60565 8.97117 5.1919C8.57812 5.41409 8.09367 5.2594 7.86586 4.85159C7.76417 4.65475 7.74123 4.42659 7.8017 4.21346C7.86216 4.00032 8.0015 3.8182 8.1914 3.70409C11.1891 2.00388 14.5784 1.11494 18.0246 1.12502C21.4861 1.12502 24.5095 1.91815 27.8255 3.69002C28.0189 3.7964 28.163 3.97436 28.2267 4.18573C28.2905 4.3971 28.2689 4.62504 28.1665 4.82065C28.1049 4.95952 28.0049 5.07784 27.8781 5.16159C27.7514 5.24533 27.6033 5.29099 27.4514 5.29315ZM4.19273 14.1525C4.02385 14.1513 3.85941 14.0983 3.72164 14.0006C3.54238 13.8674 3.42182 13.6698 3.38536 13.4495C3.3489 13.2292 3.39938 13.0033 3.52617 12.8194C5.13562 10.4569 7.18242 8.60065 9.62156 7.30127C14.7248 4.57034 21.259 4.55065 26.3784 7.2844C28.8169 8.58377 30.8644 10.4231 32.4738 12.7688C32.6001 12.9528 32.6503 13.1785 32.6138 13.3987C32.5774 13.6189 32.4572 13.8165 32.2784 13.95C32.1916 14.0149 32.0925 14.0612 31.9871 14.0862C31.8817 14.1112 31.7723 14.1143 31.6656 14.0953C31.559 14.0763 31.4574 14.0357 31.3671 13.9759C31.2768 13.916 31.1998 13.8383 31.1407 13.7475C29.6782 11.6213 27.8255 9.95065 25.631 8.78627C20.9665 6.30565 15.0012 6.30565 10.3528 8.80315C8.14218 9.9844 6.28945 11.6719 4.82695 13.7953C4.76389 13.9071 4.67145 13.9994 4.55966 14.0624C4.44786 14.1253 4.32097 14.1565 4.19273 14.1525ZM14.3508 34.5235C14.2434 34.5245 14.137 34.5024 14.0388 34.4588C13.9407 34.4151 13.8531 34.3508 13.7819 34.2703C12.368 32.7994 11.6016 31.8516 10.5152 29.8125C9.39023 27.7369 8.80875 25.2056 8.80875 22.4888C8.80875 17.4769 12.9368 13.3931 18.0084 13.3931C23.0801 13.3931 27.2109 17.4769 27.2109 22.4888C27.2141 22.5975 27.1955 22.7057 27.1561 22.8071C27.1167 22.9085 27.0574 23.0009 26.9816 23.0789C26.9058 23.1569 26.8152 23.219 26.715 23.2613C26.6149 23.3037 26.5072 23.3255 26.3985 23.3255C26.2897 23.3255 26.1821 23.3037 26.0819 23.2613C25.9817 23.219 25.8911 23.1569 25.8153 23.0789C25.7396 23.0009 25.6802 22.9085 25.6409 22.8071C25.6015 22.7057 25.5828 22.5975 25.586 22.4888C25.586 18.405 22.1885 15.0806 18.012 15.0806C13.8354 15.0806 10.4344 18.405 10.4344 22.4888C10.4344 24.9188 10.954 27.1631 11.9454 28.9856C12.986 30.9263 13.7032 31.7531 14.9527 33.0694C15.1008 33.2332 15.1829 33.4462 15.1829 33.6671C15.1829 33.8879 15.1008 34.1009 14.9527 34.2647C14.7931 34.4257 14.5773 34.5184 14.3508 34.5235ZM26.0051 31.4016C24.0708 31.4016 22.3643 30.8953 20.9665 29.8997C19.7756 29.065 18.8027 27.9563 18.1297 26.6671C17.4567 25.3779 17.1033 23.9459 17.0993 22.4916C17.0947 22.382 17.1124 22.2726 17.1512 22.17C17.19 22.0674 17.2491 21.9738 17.325 21.8946C17.401 21.8155 17.4921 21.7525 17.593 21.7095C17.6939 21.6664 17.8024 21.6443 17.9121 21.6443C18.0218 21.6443 18.1303 21.6664 18.2312 21.7095C18.3321 21.7525 18.4233 21.8155 18.4992 21.8946C18.5751 21.9738 18.6342 22.0674 18.673 22.17C18.7118 22.2726 18.7295 22.382 18.7249 22.4916C18.7276 23.6728 19.0157 24.836 19.5647 25.8819C20.1136 26.9279 20.9072 27.8258 21.8777 28.4991C23.0316 29.3091 24.3809 29.6944 26.0065 29.6944C26.5726 29.6843 27.137 29.6279 27.694 29.5256C28.1327 29.4413 28.5553 29.745 28.6362 30.2175C28.6774 30.4356 28.6304 30.6611 28.5056 30.8446C28.3808 31.028 28.1883 31.1545 27.9703 31.1963C27.3229 31.3242 26.665 31.392 26.0051 31.3988V31.4016ZM22.7377 34.875C22.6663 34.8721 22.5955 34.8607 22.5267 34.8413C19.942 34.0988 18.2517 33.1031 16.4798 31.2975C14.2038 28.9519 12.953 25.83 12.953 22.4888C12.953 19.755 15.1959 17.5275 17.9585 17.5275C20.7211 17.5275 22.9648 19.755 22.9648 22.4888C22.9648 24.2944 24.4765 25.7625 26.3454 25.7625C28.2143 25.7625 29.726 24.2944 29.726 22.4888C29.726 16.1269 24.4434 10.9631 17.9423 10.9631C13.3263 10.9631 9.10054 13.6294 7.19929 17.7638C6.56648 19.1306 6.24023 20.7338 6.24023 22.4888C6.24023 23.805 6.35343 25.8806 7.32867 28.5806C7.49179 29.0194 7.28015 29.5088 6.85757 29.6606C6.75715 29.6989 6.65002 29.7164 6.54264 29.7122C6.43526 29.708 6.32984 29.6822 6.23271 29.6362C6.13557 29.5902 6.04874 29.5251 5.97741 29.4447C5.90609 29.3643 5.85174 29.2704 5.81765 29.1685C5.03345 27.0287 4.6317 24.7677 4.63078 22.4888C4.63078 20.4638 5.00484 18.6216 5.73609 17.0213C7.8982 12.3103 12.6928 9.25877 17.9423 9.25877C25.3378 9.25877 31.3516 15.1819 31.3516 22.4719C31.3516 25.2056 29.1087 27.4331 26.3454 27.4331C23.5821 27.4331 21.3391 25.2056 21.3391 22.4719C21.3398 20.6663 19.8281 19.1953 17.9592 19.1953C16.0903 19.1953 14.5786 20.6635 14.5786 22.4691C14.5786 25.3519 15.6516 28.0547 17.6182 30.0797C19.1651 31.666 20.6416 32.5406 22.9331 33.2016C23.3719 33.3197 23.6159 33.7922 23.5019 34.231C23.4665 34.4091 23.3715 34.5698 23.2326 34.6869C23.0937 34.8039 22.9192 34.8702 22.7377 34.875Z" fill="white"/>
</svg>
