<svg width="21" height="21" viewBox="0 0 21 21" fill="none" xmlns="http://www.w3.org/2000/svg">
<g clip-path="url(#clip0_1_87)">
<path d="M18.3251 14.7306C17.8455 11.8681 16.475 9.22984 14.4086 7.19162C13.9562 6.7515 13.7305 6.53187 13.2309 6.32887C12.7312 6.125 12.3016 6.125 11.4432 6.125H9.55673C8.69836 6.125 8.26873 6.125 7.76911 6.32887C7.27036 6.53187 7.04286 6.7515 6.59136 7.19162C4.52501 9.22984 3.15445 11.8681 2.67486 14.7306C2.24873 17.3014 4.61998 19.25 7.26948 19.25H13.7305C16.3809 19.25 18.753 17.3014 18.3242 14.7306" stroke="#FBBC05" stroke-width="1.5" stroke-linecap="round" stroke-linejoin="round"/>
<path d="M9.14085 13.8122V8.56224M10.7815 8.56224V7.24974M10.7815 15.1247V13.8122M9.14085 11.1872H12.4221M12.4221 11.1872C12.9655 11.1872 13.4065 11.6282 13.4065 12.1716V12.8279C13.4065 13.3712 12.9655 13.8122 12.4221 13.8122H8.15647M12.4221 11.1872C12.9655 11.1872 13.4065 10.7462 13.4065 10.2029V9.54661C13.4065 9.00324 12.9655 8.56224 12.4221 8.56224H8.15647M6.63135 2.38737C6.45022 2.12487 6.1886 1.76787 6.72935 1.68737C7.28497 1.60337 7.8616 1.98312 8.42685 1.97612C8.93697 1.96824 9.19685 1.74162 9.47685 1.41787C9.77085 1.07749 10.2258 0.249741 10.7815 0.249741C11.3371 0.249741 11.7921 1.07749 12.0861 1.41787C12.3661 1.74162 12.626 1.96912 13.1361 1.97524C13.7013 1.98399 14.278 1.60337 14.8336 1.68649C15.3743 1.76787 15.1127 2.12399 14.9316 2.38649L14.1161 3.57562C13.7661 4.08312 13.592 4.33687 13.2262 4.48124C12.8605 4.62562 12.3888 4.62474 11.4447 4.62474H10.1182C9.17322 4.62474 8.7016 4.62474 8.33672 4.48124C7.97185 4.33774 7.79685 4.08224 7.44685 3.57474L6.63135 2.38737Z" stroke="#FBBC05" stroke-width="1.5" stroke-linecap="round" stroke-linejoin="round"/>
</g>
<defs>
<clipPath id="clip0_1_87">
<rect width="21" height="21" fill="white"/>
</clipPath>
</defs>
</svg>
