<svg width="30" height="30" viewBox="0 0 30 30" fill="none" xmlns="http://www.w3.org/2000/svg">
<path d="M11.5179 16.0714C12.1572 16.0714 12.7704 16.3254 13.2225 16.7775C13.6746 17.2296 13.9286 17.8428 13.9286 18.4822V24.375C13.9286 25.0144 13.6746 25.6275 13.2225 26.0796C12.7704 26.5317 12.1572 26.7857 11.5179 26.7857H5.62501C4.98565 26.7857 4.37247 26.5317 3.92038 26.0796C3.46828 25.6275 3.21429 25.0144 3.21429 24.375V18.4822C3.21429 17.8428 3.46828 17.2296 3.92038 16.7775C4.37247 16.3254 4.98565 16.0714 5.62501 16.0714H11.5179ZM19.6446 16.0714V19.6425H23.2147V23.2147H19.6446V26.7847H16.0714V23.2136H19.6425V19.6425H16.0714V16.0714H19.6446ZM26.7857 23.2136V26.7857H23.2147V23.2147L26.7857 23.2136ZM11.5179 17.6786H5.62501C5.41189 17.6786 5.2075 17.7632 5.0568 17.9139C4.9061 18.0646 4.82144 18.269 4.82144 18.4822V24.375C4.82144 24.8186 5.18144 25.1786 5.62501 25.1786H11.5179C11.731 25.1786 11.9354 25.0939 12.0861 24.9432C12.2368 24.7925 12.3214 24.5881 12.3214 24.375V18.4822C12.3214 18.269 12.2368 18.0646 12.0861 17.9139C11.9354 17.7632 11.731 17.6786 11.5179 17.6786ZM10.1786 19.8214V23.0357H6.96429V19.8214H10.1786ZM26.7857 16.0714V19.6425H23.2147V16.0714H26.7857ZM11.5179 3.21429C12.1572 3.21429 12.7704 3.46828 13.2225 3.92038C13.6746 4.37247 13.9286 4.98565 13.9286 5.62501V11.5179C13.9286 12.1572 13.6746 12.7704 13.2225 13.2225C12.7704 13.6746 12.1572 13.9286 11.5179 13.9286H5.62501C4.98565 13.9286 4.37247 13.6746 3.92038 13.2225C3.46828 12.7704 3.21429 12.1572 3.21429 11.5179V5.62501C3.21429 4.98565 3.46828 4.37247 3.92038 3.92038C4.37247 3.46828 4.98565 3.21429 5.62501 3.21429H11.5179ZM24.375 3.21429C25.0144 3.21429 25.6275 3.46828 26.0796 3.92038C26.5317 4.37247 26.7857 4.98565 26.7857 5.62501V11.5179C26.7857 12.1572 26.5317 12.7704 26.0796 13.2225C25.6275 13.6746 25.0144 13.9286 24.375 13.9286H18.4822C17.8428 13.9286 17.2296 13.6746 16.7775 13.2225C16.3254 12.7704 16.0714 12.1572 16.0714 11.5179V5.62501C16.0714 4.98565 16.3254 4.37247 16.7775 3.92038C17.2296 3.46828 17.8428 3.21429 18.4822 3.21429H24.375ZM11.5179 4.82144H5.62501C5.41189 4.82144 5.2075 4.9061 5.0568 5.0568C4.9061 5.2075 4.82144 5.41189 4.82144 5.62501V11.5179C4.82144 11.9614 5.18144 12.3214 5.62501 12.3214H11.5179C11.731 12.3214 11.9354 12.2368 12.0861 12.0861C12.2368 11.9354 12.3214 11.731 12.3214 11.5179V5.62501C12.3214 5.41189 12.2368 5.2075 12.0861 5.0568C11.9354 4.9061 11.731 4.82144 11.5179 4.82144ZM24.375 4.82144H18.4822C18.269 4.82144 18.0646 4.9061 17.9139 5.0568C17.7632 5.2075 17.6786 5.41189 17.6786 5.62501V11.5179C17.6786 11.9614 18.0386 12.3214 18.4822 12.3214H24.375C24.5881 12.3214 24.7925 12.2368 24.9432 12.0861C25.0939 11.9354 25.1786 11.731 25.1786 11.5179V5.62501C25.1786 5.41189 25.0939 5.2075 24.9432 5.0568C24.7925 4.9061 24.5881 4.82144 24.375 4.82144ZM10.1786 6.96429V10.1786H6.96429V6.96429H10.1786ZM23.0357 6.96429V10.1786H19.8214V6.96429H23.0357Z" fill="black"/>
</svg>
