<svg width="21" height="21" viewBox="0 0 21 21" fill="none" xmlns="http://www.w3.org/2000/svg">
<path opacity="0.15" d="M2.80432 19.4031C2.80432 19.4979 3.00337 19.5918 3.39012 19.6794C3.77686 19.767 4.34371 19.8465 5.05832 19.9136C5.77292 19.9806 6.62128 20.0338 7.55496 20.0701C8.48863 20.1063 9.48934 20.125 10.4999 20.125C11.5106 20.125 12.5113 20.1063 13.4449 20.0701C14.3786 20.0338 15.227 19.9806 15.9416 19.9136C16.6562 19.8465 17.223 19.767 17.6098 19.6794C17.9965 19.5918 18.1956 19.4979 18.1956 19.4031C18.1956 19.2117 17.3848 19.0281 15.9416 18.8927C14.4984 18.7573 12.541 18.6813 10.4999 18.6813C8.45894 18.6813 6.50153 18.7573 5.05832 18.8927C3.61511 19.0281 2.80432 19.2117 2.80432 19.4031Z" fill="#45413C"/>
<path d="M3.76685 15.6625H17.2331V17.5875C17.2331 17.9704 17.081 18.3376 16.8102 18.6084C16.5395 18.8791 16.1723 19.0312 15.7893 19.0312H5.2106C4.82769 19.0312 4.46047 18.8791 4.18971 18.6084C3.91895 18.3376 3.76685 17.9704 3.76685 17.5875V15.6625Z" fill="#BDBEC0" stroke="#45413C" stroke-width="0.5" stroke-linecap="round" stroke-linejoin="round"/>
<path d="M3.76685 14.7H17.2331V16.625C17.2331 17.0079 17.081 17.3751 16.8102 17.6459C16.5395 17.9166 16.1723 18.0687 15.7893 18.0687H5.2106C4.82769 18.0687 4.46047 17.9166 4.18971 17.6459C3.91895 17.3751 3.76685 17.0079 3.76685 16.625V14.7Z" fill="#BDBEC0" stroke="#45413C" stroke-width="0.5" stroke-linecap="round" stroke-linejoin="round"/>
<path d="M3.76685 7H17.2331V15.6625C17.2331 16.0454 17.081 16.4126 16.8102 16.6834C16.5395 16.9541 16.1723 17.1062 15.7893 17.1062H5.2106C4.82769 17.1062 4.46047 16.9541 4.18971 16.6834C3.91895 16.4126 3.76685 16.0454 3.76685 15.6625V7Z" fill="white" stroke="#45413C" stroke-width="0.5" stroke-linecap="round" stroke-linejoin="round"/>
<path d="M5.21066 2.91812H15.7894C16.1723 2.91812 16.5395 3.07023 16.8103 3.34099C17.081 3.61174 17.2332 3.97897 17.2332 4.36187V6.98687H3.76691V4.375C3.76517 4.1843 3.80124 3.99515 3.87301 3.81847C3.94479 3.64178 4.05086 3.48107 4.1851 3.34562C4.31934 3.21016 4.47908 3.10264 4.65511 3.02926C4.83113 2.95589 5.01995 2.91811 5.21066 2.91812Z" fill="#FF6242"/>
<path d="M15.7893 2.91813H5.21058C5.01971 2.91753 4.83063 2.95491 4.65434 3.02808C4.47804 3.10124 4.31807 3.20874 4.18371 3.34432C4.04936 3.4799 3.94331 3.64084 3.87174 3.81779C3.80017 3.99473 3.76451 4.18415 3.76683 4.375V5.57813C3.76625 5.38837 3.8032 5.20037 3.87555 5.02495C3.9479 4.84952 4.05423 4.69013 4.18841 4.55595C4.32259 4.42178 4.48197 4.31545 4.6574 4.2431C4.83282 4.17075 5.02082 4.1338 5.21058 4.13438H15.7893C15.9791 4.1338 16.1671 4.17075 16.3425 4.2431C16.5179 4.31545 16.6773 4.42178 16.8115 4.55595C16.9457 4.69013 17.052 4.84952 17.1244 5.02495C17.1967 5.20037 17.2337 5.38837 17.2331 5.57813V4.375C17.2354 4.18415 17.1997 3.99473 17.1282 3.81779C17.0566 3.64084 16.9506 3.4799 16.8162 3.34432C16.6818 3.20874 16.5219 3.10124 16.3456 3.02808C16.1693 2.95491 15.9802 2.91753 15.7893 2.91813Z" fill="#FF866E"/>
<path d="M5.21066 2.91812H15.7894C16.1723 2.91812 16.5395 3.07023 16.8103 3.34099C17.081 3.61174 17.2332 3.97897 17.2332 4.36187V6.98687H3.76691V4.375C3.76517 4.1843 3.80124 3.99515 3.87301 3.81847C3.94479 3.64178 4.05086 3.48107 4.1851 3.34562C4.31934 3.21016 4.47908 3.10264 4.65511 3.02926C4.83113 2.95589 5.01995 2.91811 5.21066 2.91812Z" stroke="#45413C" stroke-width="0.5" stroke-linecap="round" stroke-linejoin="round"/>
<path d="M6.64995 4.12125C6.52267 4.12011 6.40092 4.06904 6.31092 3.97904C6.22091 3.88903 6.16984 3.76729 6.1687 3.64V2.1875C6.1687 2.05987 6.2194 1.93746 6.30966 1.84721C6.39991 1.75696 6.52232 1.70625 6.64995 1.70625C6.77759 1.70625 6.89999 1.75696 6.99025 1.84721C7.0805 1.93746 7.1312 2.05987 7.1312 2.1875V3.63125C7.13236 3.69518 7.12077 3.75871 7.09711 3.81811C7.07345 3.87751 7.03818 3.9316 6.99338 3.97722C6.94857 4.02284 6.89513 4.05907 6.83616 4.0838C6.7772 4.10853 6.71389 4.12126 6.64995 4.12125ZM10.5 4.12125C10.3723 4.12125 10.2499 4.07055 10.1597 3.9803C10.0694 3.89005 10.0187 3.76764 10.0187 3.64V2.1875C10.021 2.06139 10.0727 1.94122 10.1627 1.85285C10.2527 1.76448 10.3738 1.71498 10.5 1.715C10.6261 1.71498 10.7472 1.76448 10.8372 1.85285C10.9272 1.94122 10.9789 2.06139 10.9812 2.1875V3.63125C10.9824 3.69518 10.9708 3.75871 10.9471 3.81811C10.9234 3.87751 10.8882 3.9316 10.8434 3.97722C10.7986 4.02284 10.7451 4.05907 10.6862 4.0838C10.6272 4.10853 10.5639 4.12126 10.5 4.12125ZM14.35 4.12125C14.2223 4.12125 14.0999 4.07055 14.0097 3.9803C13.9194 3.89005 13.8687 3.76764 13.8687 3.64V2.1875C13.8687 2.05987 13.9194 1.93746 14.0097 1.84721C14.0999 1.75696 14.2223 1.70625 14.35 1.70625C14.4776 1.70625 14.6 1.75696 14.6902 1.84721C14.7805 1.93746 14.8312 2.05987 14.8312 2.1875V3.63125C14.8318 3.69503 14.8198 3.75829 14.7959 3.81743C14.772 3.87657 14.7368 3.93043 14.6921 3.97593C14.6474 4.02143 14.5942 4.05768 14.5355 4.08262C14.4768 4.10755 14.4137 4.12068 14.35 4.12125Z" fill="#E8F4FA"/>
<path d="M6.64995 1.715C6.52382 1.71498 6.40272 1.76448 6.31271 1.85284C6.22271 1.94121 6.17099 2.06138 6.1687 2.1875V2.91812C6.1687 2.79049 6.2194 2.66808 6.30966 2.57783C6.39991 2.48757 6.52232 2.43687 6.64995 2.43687C6.77759 2.43687 6.89999 2.48757 6.99025 2.57783C7.0805 2.66808 7.1312 2.79049 7.1312 2.91812V2.1875C7.12891 2.06138 7.07719 1.94121 6.98719 1.85284C6.89719 1.76448 6.77608 1.71498 6.64995 1.715ZM10.5 1.715C10.3738 1.71498 10.2527 1.76448 10.1627 1.85284C10.0727 1.94121 10.021 2.06138 10.0187 2.1875V2.91812C10.0187 2.79049 10.0694 2.66808 10.1597 2.57783C10.2499 2.48757 10.3723 2.43687 10.5 2.43687C10.6276 2.43687 10.75 2.48757 10.8402 2.57783C10.9305 2.66808 10.9812 2.79049 10.9812 2.91812V2.1875C10.9789 2.06138 10.9272 1.94121 10.8372 1.85284C10.7472 1.76448 10.6261 1.71498 10.5 1.715ZM14.35 1.715C14.2238 1.71498 14.1027 1.76448 14.0127 1.85284C13.9227 1.94121 13.871 2.06138 13.8687 2.1875V2.91812C13.8687 2.79049 13.9194 2.66808 14.0097 2.57783C14.0999 2.48757 14.2223 2.43687 14.35 2.43687C14.4776 2.43687 14.6 2.48757 14.6902 2.57783C14.7805 2.66808 14.8312 2.79049 14.8312 2.91812V2.1875C14.8289 2.06138 14.7772 1.94121 14.6872 1.85284C14.5972 1.76448 14.4761 1.71498 14.35 1.715Z" fill="white"/>
<path d="M6.64995 4.12125C6.52267 4.12011 6.40092 4.06904 6.31092 3.97904C6.22091 3.88903 6.16984 3.76729 6.1687 3.64V2.1875C6.1687 2.05987 6.2194 1.93746 6.30966 1.84721C6.39991 1.75696 6.52232 1.70625 6.64995 1.70625C6.77759 1.70625 6.89999 1.75696 6.99025 1.84721C7.0805 1.93746 7.1312 2.05987 7.1312 2.1875V3.63125C7.13236 3.69518 7.12077 3.75871 7.09711 3.81811C7.07345 3.87751 7.03818 3.9316 6.99338 3.97722C6.94857 4.02284 6.89513 4.05907 6.83616 4.0838C6.7772 4.10853 6.71389 4.12126 6.64995 4.12125ZM10.5 4.12125C10.3723 4.12125 10.2499 4.07055 10.1597 3.9803C10.0694 3.89005 10.0187 3.76764 10.0187 3.64V2.1875C10.021 2.06139 10.0727 1.94122 10.1627 1.85285C10.2527 1.76448 10.3738 1.71498 10.5 1.715C10.6261 1.71498 10.7472 1.76448 10.8372 1.85285C10.9272 1.94122 10.9789 2.06139 10.9812 2.1875V3.63125C10.9824 3.69518 10.9708 3.75871 10.9471 3.81811C10.9234 3.87751 10.8882 3.9316 10.8434 3.97722C10.7986 4.02284 10.7451 4.05907 10.6862 4.0838C10.6272 4.10853 10.5639 4.12126 10.5 4.12125ZM14.35 4.12125C14.2223 4.12125 14.0999 4.07055 14.0097 3.9803C13.9194 3.89005 13.8687 3.76764 13.8687 3.64V2.1875C13.8687 2.05987 13.9194 1.93746 14.0097 1.84721C14.0999 1.75696 14.2223 1.70625 14.35 1.70625C14.4776 1.70625 14.6 1.75696 14.6902 1.84721C14.7805 1.93746 14.8312 2.05987 14.8312 2.1875V3.63125C14.8318 3.69503 14.8198 3.75829 14.7959 3.81743C14.772 3.87657 14.7368 3.93043 14.6921 3.97593C14.6474 4.02143 14.5942 4.05768 14.5355 4.08262C14.4768 4.10755 14.4137 4.12068 14.35 4.12125Z" stroke="#45413C" stroke-width="0.5" stroke-linecap="round" stroke-linejoin="round"/>
<path d="M7.84874 14.0919V10.1544H7.38499C7.30998 10.1601 7.23465 10.1485 7.16485 10.1204C7.09505 10.0923 7.03265 10.0486 6.98249 9.9925C6.89228 9.88475 6.8441 9.748 6.84687 9.6075C6.84218 9.53073 6.85336 9.45381 6.8797 9.38155C6.90605 9.30929 6.94699 9.24324 6.99999 9.1875C7.0498 9.13337 7.11087 9.09083 7.1789 9.06286C7.24693 9.03489 7.32027 9.02218 7.39374 9.02562H8.51374C8.58577 9.02228 8.65769 9.0342 8.72479 9.06058C8.79189 9.08697 8.85266 9.12724 8.90312 9.17875C8.99891 9.29216 9.04884 9.43728 9.04312 9.58562V14.0919C9.0478 14.254 8.98801 14.4113 8.87687 14.5294C8.81854 14.5841 8.74964 14.6263 8.6744 14.6534C8.59916 14.6804 8.51918 14.6918 8.43937 14.6869C8.35919 14.6918 8.27888 14.6799 8.20354 14.6521C8.12821 14.6242 8.05952 14.5809 8.00187 14.525C7.94891 14.4666 7.9081 14.3982 7.88182 14.3238C7.85553 14.2495 7.84429 14.1706 7.84874 14.0919ZM10.325 13.8687L12.2981 10.1325H10.2725C10.1926 10.1385 10.1123 10.1276 10.0369 10.1005C9.96151 10.0734 9.8927 10.0306 9.83499 9.975C9.75518 9.89549 9.70188 9.79328 9.68235 9.68234C9.66283 9.57139 9.67805 9.45712 9.72592 9.35515C9.77379 9.25318 9.85199 9.16848 9.94982 9.11263C10.0477 9.05678 10.1603 9.03251 10.2725 9.04312H13.125C13.2079 9.03511 13.2914 9.04814 13.3679 9.08103C13.4444 9.11392 13.5113 9.16559 13.5625 9.23125C13.6514 9.33865 13.7022 9.47252 13.7069 9.61187C13.7067 9.69021 13.6903 9.76766 13.6587 9.83937C13.6201 9.93931 13.5763 10.0372 13.5275 10.1325L11.5675 14.1094C11.5091 14.2387 11.4403 14.363 11.3619 14.4812C11.3165 14.5516 11.255 14.6101 11.1825 14.6519C11.0576 14.7021 10.9212 14.7169 10.7884 14.6945C10.6556 14.6721 10.5315 14.6134 10.43 14.525C10.3764 14.4775 10.3329 14.4197 10.3021 14.3551C10.2712 14.2905 10.2537 14.2203 10.2506 14.1487C10.2527 14.0508 10.2782 13.9548 10.325 13.8687Z" fill="#45413C"/>
</svg>
